<svg id="Layer_1" data-name="Layer 1" xmlns="http://www.w3.org/2000/svg" viewBox="0 0 344.49 88.23"><defs><style>.cls-1{fill:#0070cc;}.cls-2{fill:#fff;}</style></defs><path class="cls-1" d="M116.49,32.2h3.91V64.08h-3.91Z"/><path class="cls-1" d="M128,42.21h3.63v3.95h0a9.25,9.25,0,0,1,7.94-4.22c4.72,0,7.86,2.92,7.86,9.16v13h-3.64V52.13c0-5.11-2.2-6.86-5.38-6.86-4.13,0-6.83,3-6.83,7.9V64.08H128Z"/><path class="cls-1" d="M152.41,53.3c0-6.46,4.54-11.36,10.69-11.36a9,9,0,0,1,7.81,4.18h0V31h3.64V64.08h-3.5V60H171a8.87,8.87,0,0,1-7.9,4.31C157.08,64.35,152.41,60,152.41,53.3Zm18.68,0c0-4.49-3-8-7.41-8-4.17,0-7.54,3.18-7.54,8a7.48,7.48,0,1,0,15,0Z"/><path class="cls-1" d="M180.83,35.61a2.65,2.65,0,1,1,2.65,2.61A2.62,2.62,0,0,1,180.83,35.61Zm.81,6.6h3.64V64.08h-3.64Z"/><path class="cls-1" d="M190.94,53.3c0-6.46,4.44-11.36,10.64-11.36a8.67,8.67,0,0,1,7.63,4.18l.09,0V42.21h3.63V64.08h-3.5V60.13h0a8.74,8.74,0,0,1-7.81,4.22C195.56,64.35,190.94,60,190.94,53.3Zm18.49,0c0-4.49-3-8-7.32-8-4.13,0-7.49,3.18-7.49,8,0,4.4,3,7.72,7.49,7.72C206.15,61,209.43,57.93,209.43,53.3Z"/><path class="cls-1" d="M218,59.41l2.51-3a11.44,11.44,0,0,0,8.8,4.31c3.9,0,6.55-1.8,6.55-4.89,0-3.55-2.87-4.49-7.14-6.11-4.71-1.75-9.51-3.77-9.51-9.38,0-4.76,4.26-8.44,9.74-8.44A16.06,16.06,0,0,1,239,35.61l-2.38,3.1a12.6,12.6,0,0,0-7.68-3.23c-3,0-5.66,1.62-5.7,4.67s2.83,4.17,6.82,5.7c5.34,2.11,9.88,3.55,9.88,9.52s-5.12,9-10.69,9A15.24,15.24,0,0,1,218,59.41Z"/><path class="cls-1" d="M245.53,42.21h3.64v3.86h0A9,9,0,0,1,257,41.94c6.2,0,10.64,4.9,10.64,11.36,0,6.65-4.62,11-10.64,11a8.88,8.88,0,0,1-7.77-4h0V73h-3.64ZM263.94,53.3c0-4.85-3.37-8-7.5-8-4.44,0-7.45,3.54-7.45,8a7.37,7.37,0,0,0,7.5,7.72C260.89,61,263.94,57.7,263.94,53.3Z"/><path class="cls-1" d="M292.45,54.24H275.39a7.25,7.25,0,0,0,7.5,6.78,7.84,7.84,0,0,0,6.33-2.91l2.56,2.15c-1.89,2.42-4.63,4.09-9,4.09-6.46,0-11-4.49-11-11.18s4.53-11.23,10.77-11.23c6,0,10.06,4.58,10.06,10.82C292.54,53.35,292.45,54,292.45,54.24Zm-17-3H288.9c-.53-3.59-2.87-6-6.46-6A6.91,6.91,0,0,0,275.48,51.28Z"/><path class="cls-1" d="M297.89,42.21h3.63v3.95h.05a9.25,9.25,0,0,1,7.94-4.22c4.72,0,7.86,2.92,7.86,9.16v13h-3.64V52.13c0-5.11-2.2-6.86-5.38-6.86-4.13,0-6.83,3-6.83,7.9V64.08h-3.63Z"/><path class="cls-1" d="M322.31,53.3c0-6.46,4.54-11.36,10.69-11.36a9,9,0,0,1,7.81,4.18h0V31h3.64V64.08H341V60h-.05a8.87,8.87,0,0,1-7.9,4.31C327,64.35,322.31,60,322.31,53.3Zm18.68,0c0-4.49-3-8-7.41-8-4.18,0-7.54,3.18-7.54,8a7.48,7.48,0,1,0,14.95,0Z"/><circle class="cls-1" cx="44.12" cy="44.12" r="44.12" transform="translate(-18.27 44.12) rotate(-45)"/><path class="cls-2" d="M32.31,37.18l-3.18,26h-8l3.18-26ZM24.5,29.27a4.63,4.63,0,0,1,4.94-4.68,4.46,4.46,0,0,1,4.79,4.52,4.66,4.66,0,0,1-4.95,4.72A4.52,4.52,0,0,1,24.5,29.27Z"/><path class="cls-2" d="M34.17,56.89l6.06-5.31A8.54,8.54,0,0,0,47.3,56c3,0,4.72-1.64,4.72-3.56s-1.54-2.55-5.1-4.62c-4.41-2.55-9.29-5-9.29-11.21C37.63,29.48,43.36,25,50.54,25a13.86,13.86,0,0,1,11.58,5.79l-6.06,5C54,33,51.92,32.45,50.22,32.45c-2.23,0-3.77,1.44-3.72,3.24,0,1.49,1,2.61,4.09,4.41C56.06,43.35,61,45.15,61,51.21c0,8-5.74,12.43-13.65,12.43A15.31,15.31,0,0,1,34.17,56.89Z"/><path class="cls-2" d="M62.12,59.07a4.62,4.62,0,0,1,4.94-4.67,4.45,4.45,0,0,1,4.78,4.51,4.66,4.66,0,0,1-4.94,4.73A4.52,4.52,0,0,1,62.12,59.07Z"/></svg>